<?xml version="1.0" encoding="UTF-8" standalone="no"?>
<svg
   xmlns:dc="http://purl.org/dc/elements/1.1/"
   xmlns:cc="http://creativecommons.org/ns#"
   xmlns:rdf="http://www.w3.org/1999/02/22-rdf-syntax-ns#"
   xmlns:svg="http://www.w3.org/2000/svg"
   xmlns="http://www.w3.org/2000/svg"
   xmlns:sodipodi="http://sodipodi.sourceforge.net/DTD/sodipodi-0.dtd"
   xmlns:inkscape="http://www.inkscape.org/namespaces/inkscape"
   width="793.700787402"
   height="1122.51968504"
   version="1.1"
   id="svg2880"
   sodipodi:docname="logo.svg"
   inkscape:version="0.92.4 (5da689c313, 2019-01-14)">
  <metadata
     id="metadata2884">
    <rdf:RDF>
      <cc:Work
         rdf:about="">
        <dc:format>image/svg+xml</dc:format>
        <dc:type
           rdf:resource="http://purl.org/dc/dcmitype/StillImage" />
        <dc:title></dc:title>
      </cc:Work>
    </rdf:RDF>
  </metadata>
  <sodipodi:namedview
     pagecolor="#ffffff"
     bordercolor="#666666"
     borderopacity="1"
     objecttolerance="10"
     gridtolerance="10"
     guidetolerance="10"
     inkscape:pageopacity="0"
     inkscape:pageshadow="2"
     inkscape:window-width="1600"
     inkscape:window-height="837"
     id="namedview2882"
     showgrid="false"
     inkscape:zoom="1.1893044"
     inkscape:cx="394.41699"
     inkscape:cy="620.97124"
     inkscape:window-x="-8"
     inkscape:window-y="-8"
     inkscape:window-maximized="1"
     inkscape:current-layer="g2878" />
  <desc
     id="desc2">C:\Users\Ryan\Downloads\Lighting.dxf - scale = 1.000000, origin = (0.000000, 0.000000), method = manual</desc>
  <defs
     id="defs16">
    <marker
       id="DistanceX"
       orient="auto"
       refX="0.0"
       refY="0.0"
       style="overflow:visible">
      <path
         d="M 3,-3 L -3,3 M 0,-5 L  0,5"
         style="stroke:#000000; stroke-width:0.5"
         id="path4" />
    </marker>
    <pattern
       height="8"
       id="Hatch"
       patternUnits="userSpaceOnUse"
       width="8"
       x="0"
       y="0">
      <path
         d="M8 4 l-4,4"
         linecap="square"
         stroke="#000000"
         stroke-width="0.25"
         id="path7" />
      <path
         d="M6 2 l-4,4"
         linecap="square"
         stroke="#000000"
         stroke-width="0.25"
         id="path9" />
      <path
         d="M4 0 l-4,4"
         linecap="square"
         stroke="#000000"
         stroke-width="0.25"
         id="path11" />
    </pattern>
    <symbol
       id="*MODEL_SPACE" />
    <symbol
       id="*PAPER_SPACE" />
  </defs>
  <g
     inkscape:groupmode="layer"
     inkscape:label="0"
     id="g2878">
    <path
       style="fill:#000000"
       d="m 251.8567,524.44438 c 0,-1.36633 1.31251,-3.95383 2.9167,-5.75 l 2.91669,-3.26578 14.58331,-0.34376 c 16.67449,-0.39306 19.97629,-2.15624 4.03785,-2.15624 -9.86308,0 -10.70429,-0.15883 -13,-2.45455 -3.22476,-3.22475 -3.0964,-5.94155 0.63339,-13.40552 4.50491,-9.01511 4.90588,-9.13993 29.3624,-9.13993 19.02553,0 20.54966,0.13183 20.54966,1.77749 0,2.07275 -2.69275,6.28252 -4.93964,7.72251 -0.8582,0.55 -7.86036,1.225 -15.56036,1.5 -16.60425,0.59301 -18.3658,2.26624 -3.15836,3 10.99294,0.53041 13.02407,1.33665 14.09258,5.59393 0.8455,3.36875 -3.84092,13.72906 -7.66627,16.94787 -2.89921,2.43953 -3.08035,2.4582 -23.84468,2.4582 H 251.8567 Z m 42,-0.78052 c 1.46932,-0.726 3.83041,-3.85679 5.727,-7.59398 2.68234,-5.28551 3.03683,-6.72013 2.10029,-8.5 -1.76505,-3.35445 -2.69569,-3.60872 -13.32729,-3.64128 -11.69349,-0.0358 -13.41881,-0.68802 -11.71458,-4.42839 l 1.1717,-2.57161 h 14.43255 14.43254 l 2.73587,-3.25 2.73587,-3.25 -19.80945,-0.27168 c -22.82427,-0.31303 -22.67731,-0.36478 -27.11955,9.55019 -2.8684,6.4022 -2.88042,6.70602 -0.36495,9.22149 1.73745,1.73745 3.34555,2.00201 12.25,2.01531 12.16433,0.0182 13.84379,0.66641 11.39788,4.39935 -1.69206,2.5824 -1.71038,2.58534 -16.09835,2.58534 -14.37019,0 -14.40929,0.006 -16.47695,2.63486 -1.13992,1.44917 -2.07258,3.02417 -2.07258,3.5 0,1.41089 37.08561,1.04041 40,-0.3996 z m 26.31328,1.63876 c -0.34317,-0.89429 -0.10405,-3.06374 0.53139,-4.821 1.61115,-4.45555 1.56332,-4.55302 -2.23389,-4.55302 -1.86406,0 -4.31988,-0.7875 -5.45735,-1.75 -3.88771,-3.28966 -3.62104,-6.10369 1.5429,-16.2819 l 4.80367,-9.4681 6.75,-0.29569 c 6.66486,-0.29196 6.75,-0.26316 6.75,2.28324 0,1.41842 -1.14113,4.83085 -2.53585,7.58319 -1.39471,2.75233 -2.26815,5.43737 -1.94098,5.96675 0.65777,1.06429 12.36257,1.32732 14.94624,0.33587 0.89815,-0.34465 3.147,-3.63305 4.99745,-7.30756 1.85045,-3.6745 4.03945,-7.24111 4.86443,-7.92578 0.92738,-0.76966 3.72711,-1.12942 7.33434,-0.94244 5.52717,0.2865 5.82623,0.43428 5.67975,2.80668 -0.085,1.37735 -1.88504,6.10214 -4,10.49954 -4.77995,9.9384 -9.3336,13.58189 -17.85824,14.28882 -5.50915,0.45687 -5.61479,0.52577 -7.98867,5.21039 -2.74622,5.41942 -3.76823,5.99699 -10.61164,5.99699 -3.6476,0 -5.11373,-0.42772 -5.57355,-1.62598 z m 11.72256,-1.62402 c 0.61309,-0.6875 2.10661,-3.05 3.31895,-5.25 2.08955,-3.79186 2.50692,-4.03268 8.02071,-4.628 8.91879,-0.96296 12.98696,-4.37917 17.71021,-14.872 l 3.8262,-8.5 -4.07036,-0.31309 c -2.2387,-0.1722 -4.67805,-0.0799 -5.42078,0.20512 -0.74273,0.28501 -2.93808,3.67087 -4.87855,7.52413 -1.94047,3.85326 -4.40172,7.47346 -5.46943,8.04489 -2.08697,1.11691 -14.88256,1.43291 -17.491,0.43196 -2.09864,-0.80532 -1.99794,-3.64777 0.2899,-8.18285 1.02943,-2.04059 2.18475,-4.72266 2.56739,-5.96016 0.65865,-2.13018 0.42407,-2.25 -4.40495,-2.25 h -5.10064 l -4.43828,9.11893 c -3.72788,7.65935 -4.25881,9.46003 -3.31704,11.25 1.57043,2.98483 2.77547,3.59823 7.10321,3.61576 4.54523,0.0184 5.46791,1.66566 3.29097,5.87539 -0.86479,1.67233 -1.57235,3.51295 -1.57235,4.09026 0,1.48357 8.68888,1.31011 10.03584,-0.20034 z m 24.36042,1.84026 c -0.64189,-1.67273 1.76409,-6.64784 4.1895,-8.66309 1.26313,-1.04953 5.51431,-1.51813 16.06594,-1.77093 16.50509,-0.39544 19.61053,-2.15624 3.80285,-2.15624 -9.86308,0 -10.70429,-0.15883 -13,-2.45455 -1.35,-1.35 -2.45455,-3.319 -2.45455,-4.37557 0,-3.51835 4.79241,-12.81742 7.99403,-15.5114 l 3.15942,-2.65848 h 20.92328 c 23.32467,0 23.09871,-0.0802 18.95055,6.72316 -2.43523,3.99398 -3.45495,4.23068 -19.52728,4.53262 -15.86073,0.29796 -17.07136,2.02963 -1.91852,2.74422 9.62394,0.45385 10.7786,0.71789 12.51051,2.86078 2.58747,3.20148 2.41309,5.1957 -1.0551,12.06614 -5.09741,10.09791 -5.02666,10.07308 -28.70313,10.07308 -16.62737,0 -20.4965,-0.26051 -20.9375,-1.40974 z m 42.40325,-2.16238 c 1.23448,-0.86467 3.58104,-4.21976 5.21457,-7.45577 2.32615,-4.60808 2.77158,-6.40566 2.05459,-8.29149 -1.25108,-3.2906 -2.73757,-3.68062 -14.02801,-3.68062 -10.92492,0 -13.26788,-1.06205 -10.85752,-4.92164 1.21507,-1.94564 2.20287,-2.07836 15.46851,-2.07836 h 14.17056 l 2.73592,-3.25 2.73592,-3.25 -19.37854,-0.2724 c -22.51638,-0.31652 -22.60402,-0.28694 -27.17305,9.16887 -2.2971,4.75396 -2.5643,6.07391 -1.60029,7.90519 1.79513,3.41011 2.70256,3.66668 13.02604,3.68303 12.97956,0.0205 15.00245,0.95927 11.1768,5.18657 -1.44485,1.59655 -3.33901,1.82874 -14.91821,1.82874 -7.29477,0 -13.99167,0.27953 -14.882,0.62118 -0.89032,0.34165 -2.28868,1.91665 -3.10747,3.5 l -1.48869,2.87882 h 19.30317 c 15.93349,0 19.695,-0.27444 21.5477,-1.57212 z m 24.86716,2.90545 c -1.42017,-1.42017 -0.48784,-4.63271 4.33333,-14.93133 2.75,-5.87435 5,-11.04549 5,-11.49141 0,-0.44593 -2.5875,-0.94574 -5.75,-1.11069 -5.47752,-0.28569 -5.76529,-0.43328 -6.07266,-3.11454 -0.17746,-1.54804 0.39541,-3.91054 1.27305,-5.25 l 1.59572,-2.43536 h 22.47694 c 20.8724,0 22.47695,0.12689 22.47695,1.77749 0,1.98245 -2.47437,6.06043 -4.83743,7.97251 -0.87377,0.70701 -4.30726,1.25 -7.90414,1.25 h -6.35931 l -5.99144,12.75 c -3.2953,7.0125 -6.73361,13.3125 -7.64069,14 -1.71507,1.29989 -11.43384,1.74982 -12.60032,0.58333 z m 11.46089,-2.94521 c 0.75484,-0.88653 4.07244,-7.07403 7.37244,-13.75 l 6,-12.13812 6.69857,-0.29452 c 6.14607,-0.27022 6.92111,-0.5589 9.39687,-3.5 l 2.69832,-3.20548 -20.76952,-0.27066 c -22.075,-0.28768 -23.52424,-0.017 -23.52424,4.3931 0,2.23661 0.35219,2.37756 5.94098,2.37756 3.26754,0 6.22572,0.46071 6.57372,1.02379 0.34801,0.56309 -1.87543,6.48904 -4.94098,13.16879 -3.06555,6.67975 -5.57372,12.51904 -5.57372,12.97621 0,1.5735 8.69367,0.90337 10.12756,-0.78067 z m 28.26154,1.27014 c -3.9929,-3.43454 -3.48787,-6.4896 3.451,-20.87589 4.83976,-10.03424 6.76773,-13.04533 9.1374,-14.27074 2.48194,-1.28346 6.52079,-1.5061 23.26294,-1.28237 l 20.25956,0.27074 -0.27799,2.47449 c -0.15289,1.36097 -1.46346,3.71186 -2.91237,5.2242 -2.60811,2.72228 -2.77903,2.75245 -17.1399,3.02551 -10.51331,0.19989 -14.61986,0.61983 -14.92097,1.5258 -0.31705,0.95396 2.44633,1.25 11.6679,1.25 13.29113,0 13.59622,0.17371 10.57298,6.02002 -2.25204,4.35495 -4.30597,4.97998 -16.36489,4.97998 -6.25913,0 -11.27331,0.43134 -11.62476,1 -0.40031,0.64772 4.11547,1 12.81854,1 15.22511,0 16.90283,0.65886 14.50973,5.69815 -2.48686,5.23672 -6.53557,6.29856 -24.02251,6.3003 -15.01708,10e-4 -15.8117,-0.0995 -18.41666,-2.34019 z m 35.48279,-0.76344 c 2.73227,-0.95248 5.12811,-3.44221 5.12811,-5.32908 0,-0.31116 -5.5882,-0.56574 -12.41821,-0.56574 -6.83002,0 -13.13002,-0.27314 -14,-0.60699 -0.86999,-0.33384 -1.58179,-1.6357 -1.58179,-2.89301 0,-3.12339 1.50567,-3.5 13.99289,-3.5 h 10.82932 l 2.73721,-3.25 2.73721,-3.25 -12.14832,-0.28078 c -11.87958,-0.27457 -12.14831,-0.33097 -12.14831,-2.55 0,-4.22668 1.57591,-4.66922 16.62742,-4.66922 14.17903,0 14.23447,-0.009 16.3,-2.63486 1.13992,-1.44917 2.07258,-3.02417 2.07258,-3.5 0,-0.47583 -8.69015,-0.86514 -19.31144,-0.86514 -23.16317,0 -21.45197,-0.92061 -29.28823,15.7568 -8.62228,18.35027 -8.01102,19.2432 13.17295,19.2432 7.77055,0 15.55492,-0.49733 17.29861,-1.10518 z m 10.79478,2.43851 c -0.36667,-0.36666 -0.66667,-1.40926 -0.66667,-2.31688 0,-2.08076 13.72857,-31.91922 15.75112,-34.23437 1.35535,-1.55144 4.32314,-1.71529 30.62484,-1.69073 31.56157,0.0295 32.73164,0.2169 34.04612,5.45422 0.51256,2.04218 -0.79255,5.82919 -5.61622,16.29647 -3.45617,7.49983 -7.09819,14.45029 -8.09336,15.44546 -1.41012,1.41012 -3.06762,1.74355 -7.51096,1.51096 -7.53313,-0.39434 -7.62161,-1.48637 -1.22718,-15.14568 2.77997,-5.93838 4.79645,-11.2146 4.48105,-11.72492 -0.31539,-0.51032 -1.64259,-0.92786 -2.94933,-0.92786 -5.48415,0 -6.87238,1.47671 -11.88015,12.63734 -6.41809,14.30378 -7.43017,15.36266 -14.68361,15.36266 -7.80877,0 -7.92778,-1.23718 -1.45976,-15.17457 2.89074,-6.22899 5.06317,-11.66293 4.82764,-12.07543 -0.23553,-0.4125 -2.42391,-0.75 -4.86306,-0.75 h -4.43483 l -6.03376,12.75 c -3.31857,7.0125 -6.78235,13.3125 -7.69729,14 -1.73016,1.30008 -11.44845,1.74948 -12.61459,0.58333 z m 11.90601,-3.14722 c 0.8542,-0.99764 3.78534,-6.70174 6.51364,-12.67577 2.7283,-5.97404 5.4551,-11.45778 6.05956,-12.18611 1.41953,-1.71043 11.25604,-1.76837 12.60325,-0.0742 1.42162,1.78771 1.0407,3.09425 -4.12428,14.14607 -2.54367,5.44284 -4.62485,10.50534 -4.62485,11.25 0,2.11181 8.32587,1.78726 10.16065,-0.39607 0.80884,-0.9625 3.60571,-6.475 6.21525,-12.25 2.60955,-5.775 5.66737,-11.2875 6.79515,-12.25 2.02915,-1.73177 8.10405,-2.34914 11.24716,-1.14301 2.45689,0.94279 1.93083,3.49985 -2.83051,13.75844 -6.57698,14.1705 -6.52198,13.63741 -1.40509,13.61926 2.37457,-0.008 4.86023,-0.36033 5.52369,-0.78201 1.03035,-0.65487 10.78382,-20.306 13.34286,-26.88298 0.62512,-1.60661 0.30437,-2.87184 -1.21904,-4.80854 -2.06491,-2.6251 -2.08126,-2.62766 -13.69875,-2.14368 -14.46657,0.60267 -11.89587,0.60249 -29.70144,0.002 -11.75545,-0.39637 -15.30543,-0.21797 -16.14017,0.81113 -1.16474,1.43602 -15.28976,32.06243 -15.28976,33.15192 0,0.36709 2.0294,0.66744 4.50979,0.66744 3.11806,0 4.98907,-0.55977 6.06289,-1.81389 z m 59.93416,2.82496 c -0.33615,-0.5439 0.16484,-2.62427 1.11331,-4.62302 2.52616,-5.3235 6.00039,-6.38805 20.84773,-6.38805 7.68808,0 12.53212,-0.38653 12.53212,-1 0,-0.60263 -4.13704,-1 -10.41111,-1 -10.39796,0 -10.41437,-0.004 -13,-3.07673 -1.42389,-1.69219 -2.58853,-3.60469 -2.5881,-4.25 0.002,-2.65465 5.94988,-13.48931 8.51179,-15.50451 2.62857,-2.06763 3.73013,-2.16876 23.62228,-2.16876 23.26003,0 23.03954,-0.0785 18.89242,6.72316 -2.43523,3.99398 -3.45495,4.23068 -19.52728,4.53262 -15.81631,0.29713 -17.2909,2.11464 -2.05067,2.52758 9.91443,0.26864 10.56435,0.41858 12.50433,2.88486 2.75463,3.50194 2.58286,5.93866 -0.91153,12.93157 -4.59123,9.18786 -5.24381,9.40021 -28.88741,9.40021 -12.12951,0 -20.27788,-0.39026 -20.64788,-0.98893 z m 42.99191,-3.18874 c 2.52859,-1.98899 7.50125,-11.28439 7.50125,-14.0221 0,-0.62851 -0.74474,-1.96568 -1.65499,-2.97149 -1.38804,-1.53377 -3.22975,-1.82874 -11.41821,-1.82874 -10.91157,0 -12.9268,-0.45319 -12.9268,-2.90699 0,-3.57878 2.04132,-4.09301 16.24775,-4.09301 13.6902,0 13.87565,-0.0301 16.3,-2.64602 1.34874,-1.45532 2.45225,-3.03032 2.45225,-3.5 0,-0.46969 -8.67487,-0.85398 -19.27749,-0.85398 -22.00368,0 -22.1989,0.0598 -26.24094,8.03637 -2.90091,5.72466 -3.11483,8.60641 -0.82658,11.13489 1.38804,1.53377 3.22975,1.82874 11.41821,1.82874 5.36977,0 10.47503,0.27314 11.34501,0.60699 2.01754,0.7742 2.02192,2.81003 0.0104,4.82158 -1.27772,1.27772 -4.16745,1.57143 -15.46104,1.57143 -13.00076,0 -14.0201,0.14006 -15.92857,2.18856 -4.25281,4.56485 -3.39046,4.81144 16.82618,4.81144 17.86401,0 19.01206,-0.11556 21.63361,-2.17767 z M 192.17207,460.92162 c -1.20154,-0.48411 -2.66404,-1.77601 -3.25,-2.87087 -2.79851,-5.22907 -1.42217,-10.11713 14.99014,-53.23698 8.83052,-23.20035 16.90935,-43.85613 17.95294,-45.90174 4.75393,-9.31847 20.10305,-22.0632 32.68788,-27.1415 5.75789,-2.32346 6.12707,-2.34193 46.80367,-2.34193 h 41 l 4.78539,2.35634 c 8.92517,4.39477 15.52511,16.72771 14.46992,27.03914 -0.62562,6.11374 -32.95588,90.44666 -36.62739,95.54193 -4.79235,6.65076 -7.60133,7.56259 -23.29722,7.56259 -7.53527,0 -14.82743,-0.42846 -16.2048,-0.95213 -5.6048,-2.13095 -6.22105,-9.48861 -1.80476,-21.54787 1.61135,-4.4 3.24111,-9.0125 3.62168,-10.25 l 0.69196,-2.25 h -21.95045 -21.95045 l -4.65464,11.90201 c -5.32875,13.62571 -9.24552,19.64278 -14.10912,21.67492 -3.85899,1.61239 -29.39034,1.93281 -33.15475,0.41609 z m 32.30319,-2.61631 c 4.75769,-2.25766 7.07866,-5.93 12.86398,-20.3539 l 5.02281,-12.52281 23.42845,-0.26888 c 12.88565,-0.14788 23.80486,0.10754 24.26491,0.56759 0.46005,0.46005 -0.97146,5.64963 -3.18113,11.5324 -4.21976,11.23422 -4.96037,16.99534 -2.60033,20.22776 1.26454,1.73197 2.92843,1.9761 15.44173,2.2657 16.30919,0.37744 19.3519,-0.52264 23.63233,-6.9908 1.46239,-2.20983 10.12821,-23.43895 19.25736,-47.17582 14.83697,-38.57786 16.59808,-43.79469 16.59481,-49.15795 -0.004,-7.18954 -2.57239,-13.57506 -7.40141,-18.40408 -6.12132,-6.12132 -5.91143,-6.09592 -50.37244,-6.09592 -38.26437,0 -40.79384,0.11196 -45.92794,2.03287 -11.37542,4.25609 -27.13604,17.10967 -31.48259,25.67564 -1.05813,2.08532 -9.1768,22.86391 -18.04149,46.17464 -16.03973,42.17837 -17.66417,47.78457 -14.86761,51.31069 1.92084,2.42195 3.30334,2.64245 17.09887,2.72721 9.90931,0.0609 13.63149,-0.29242 16.26969,-1.54434 z m -30.39605,-1.93341 c -3.11963,-2.18507 -2.87464,-6.75022 0.86762,-16.16727 1.69956,-4.27682 8.8822,-22.94741 15.9614,-41.49021 7.0792,-18.5428 13.8304,-35.59421 15.00266,-37.89203 3.0608,-5.99967 10.20807,-13.25568 18.55832,-18.84067 12.39504,-8.29031 11.41017,-8.15741 58.06795,-7.83565 l 40.96851,0.28253 3.93919,2.60779 c 5.58963,3.70042 9.58329,11.40929 9.69131,18.70697 0.0747,5.04655 -1.74862,10.45748 -16.23031,48.16526 -8.97296,23.364 -17.32141,44.064 -18.55211,46 -4.59949,7.23538 -5.25305,7.48598 -20.45432,7.84304 -11.71584,0.2752 -13.99741,0.0794 -15.39824,-1.32143 -2.5903,-2.59029 -1.95802,-7.62645 2.34996,-18.71764 2.19694,-5.65619 3.99694,-11.29649 4,-12.53399 l 0.006,-2.25 h -25.37801 c -19.08842,0 -25.6317,0.30978 -26.40309,1.25 -0.56404,0.6875 -3.08606,6.38536 -5.60448,12.66191 -8.04188,20.04243 -9.39525,21.08809 -27.29349,21.08809 -9.13057,0 -12.39021,-0.35991 -14.09887,-1.5567 z m 31.37407,-4.83934 c 2.04159,-2.36178 5.17455,-8.52156 7.97076,-15.67152 2.53386,-6.47915 5.51504,-12.602 6.62483,-13.60635 1.84404,-1.66884 4.24054,-1.82609 27.82948,-1.82609 14.19643,0 26.0883,0.27661 26.42638,0.61469 1.63522,1.63522 1.14366,5.40962 -1.63551,12.55822 -1.67362,4.3049 -3.77844,10.45099 -4.67736,13.65797 -1.57541,5.62037 -1.56435,5.88212 0.30634,7.25 1.38622,1.01363 4.95778,1.41868 12.49963,1.41757 13.19354,-0.002 16.41026,-1.35289 20.23559,-8.49845 1.4722,-2.75 9.6847,-23.339 18.25,-45.75333 16.81374,-43.99945 17.38068,-46.24801 13.67742,-54.24667 -2.15554,-4.65574 -6.41703,-8.92424 -10.41924,-10.43638 -1.81008,-0.6839 -16.47201,-1.06362 -41.0685,-1.06362 -30.93697,0 -39.21077,0.28431 -43.25897,1.48649 -10.18072,3.02335 -25.75794,15.49777 -30.1824,24.17042 -3.34063,6.54817 -34.17503,88.03025 -34.17503,90.30992 0,3.24255 3.42888,4.03227 16.36642,3.76945 l 11.86643,-0.24106 z M 253.0567,390.7286 c -0.66,-0.66 -1.19835,-1.6725 -1.19633,-2.25 0.009,-2.69863 6.04006,-16.11921 8.33666,-18.55245 5.18872,-5.49746 7.64715,-5.99755 29.48407,-5.99755 h 20.02215 l 3.07672,2.58889 c 1.80907,1.52224 3.07673,3.54564 3.07673,4.91102 0,3.35389 -3.93433,13.45762 -6.71708,17.25009 l -2.3847,3.25 h -26.24911 c -19.08264,0 -26.57673,-0.32762 -27.44911,-1.2 z m 53.99123,-2.55 c 1.53001,-1.78358 6.80877,-14.42542 6.80877,-16.30598 0,-0.56921 -1.10455,-2.13948 -2.45455,-3.48948 -2.43369,-2.43369 -2.61419,-2.45435 -21.25,-2.43258 -24.99099,0.0292 -27.66193,1.15209 -32.7963,13.78785 -4.47701,11.018 -6.33292,10.19019 22.84586,10.19019 22.89956,0 25.48986,-0.16885 26.84622,-1.75 z m -49.19042,-2 c 0.002,-4.11381 3.93736,-11.8695 7.48454,-14.75 l 3.69433,-3 19.22816,-0.30767 c 17.35984,-0.27778 19.43633,-0.13203 21.37072,1.5 l 2.14257,1.80767 -2.47496,7 c -1.36124,3.85 -3.2295,7.5625 -4.1517,8.25 -1.22664,0.91446 -7.79943,1.25 -24.4856,1.25 -21.05638,0 -22.80881,-0.13446 -22.80806,-1.75 z m 47.33292,-3.5063 c 3.79224,-9.07611 4.17967,-10.80733 2.63691,-11.78301 -0.80885,-0.51153 -8.89564,-0.92707 -17.97064,-0.92342 -20.90605,0.008 -23.80109,1.00292 -27.54165,9.461 -1.35209,3.05732 -2.45835,5.77093 -2.45835,6.03024 0,0.25932 9.89396,0.47149 21.98658,0.47149 h 21.98658 z m 36.98164,78.26857 c -1.20154,-0.4947 -2.71597,-1.89227 -3.36538,-3.10572 -3.00462,-5.61418 -1.79754,-9.66793 19.0261,-63.89538 11.0858,-28.86885 21.06893,-53.96599 22.18475,-55.77141 1.11581,-1.80542 3.63829,-4.51045 5.60551,-6.01117 3.53764,-2.69875 3.74535,-2.72859 18.99105,-2.72859 h 15.41428 l 2.41416,2.80576 c 4.74088,5.50991 3.89197,9.122 -11.91411,50.69424 l -14.25778,37.5 32.75886,0.5 c 38.2141,0.58326 36.44443,0.0872 36.14959,10.13273 -0.33579,11.4406 -8.03518,22.02894 -20.14725,27.70686 l -5.67515,2.66041 -47.5,0.20586 c -26.38235,0.11434 -48.47125,-0.19402 -49.68463,-0.69359 z m 101.88113,-4.18245 c 6.2141,-2.91281 13.62622,-9.67917 16.401,-14.97214 1.16317,-2.21876 1.78436,-5.73206 1.83137,-10.35768 l 0.0711,-7 -33.98682,-0.5 c -29.58686,-0.43527 -34.02525,-0.6999 -34.28367,-2.04411 -0.16327,-0.84927 6.24329,-18.71269 14.23682,-39.6965 15.35997,-40.32142 16.41385,-44.37924 12.5337,-48.25939 -1.81326,-1.81326 -3.33049,-1.99965 -16.25,-1.99626 -15.99018,0.004 -18.65967,0.85121 -22.51296,7.14324 -1.12937,1.84416 -11.09472,26.94148 -22.14522,55.77183 -20.38967,53.1959 -21.95065,58.35517 -18.84182,62.27503 0.6875,0.86685 1.925,1.82606 2.75,2.13157 0.825,0.30551 22.425,0.46977 48,0.36503 l 46.5,-0.19044 z m -100.06892,-0.44208 c -2.09035,-1.47377 -2.30349,-2.22046 -1.79265,-6.28019 0.65876,-5.23538 37.47762,-102.35255 41.26773,-108.85198 3.76462,-6.45572 6.15105,-7.25557 21.64768,-7.25557 14.74059,0 15.74966,0.36989 15.74966,5.77332 0,1.92818 -6.44548,20.32594 -15.04539,42.94506 -8.27496,21.76446 -14.90642,40.29396 -14.73657,41.17668 0.27524,1.43044 4.08553,1.63353 35.04539,1.8679 l 34.73657,0.26296 v 4.79069 c 0,9.66776 -6.87088,18.8837 -17.95437,24.08228 l -5.54563,2.60111 -45.5,0.28019 c -41.2011,0.25371 -45.72415,0.12215 -47.87242,-1.39245 z m 97.9589,-3.50756 c 9.53417,-4.4711 15.37145,-11.6462 16.56621,-20.36295 l 0.61916,-4.51723 h -33.93593 c -35.97519,0 -36.33592,-0.0471 -36.33592,-4.74386 0,-1.28912 6.13486,-18.41162 13.63302,-38.05 15.66787,-41.03561 16.63832,-43.90432 15.88458,-46.95614 -0.53942,-2.18406 -0.92293,-2.25 -13.08631,-2.25 -14.38703,0 -16.84577,0.81397 -20.09351,6.65196 -1.80422,3.2432 -31.53293,79.84239 -38.94582,100.34804 -2.99334,8.28023 -3.0232,10.80364 -0.14196,11.99409 1.29748,0.53608 20.87708,0.83994 46.25,0.71777 l 44,-0.21186 z m 32.22889,8.11284 c -1.20154,-0.48411 -2.71597,-1.87302 -3.36538,-3.08647 -3.01837,-5.63987 -1.83261,-9.61113 19.28661,-64.59332 12.07858,-31.44563 21.54086,-54.64374 23.14818,-56.75105 5.64759,-7.40438 2.41117,-7.06218 66.79189,-7.06218 57.07056,0 57.70634,0.0221 60.5,2.10453 4.70215,3.50502 6.70069,7.96494 6.63413,14.80468 -0.0502,5.15889 -1.36847,9.50985 -8.61602,28.43745 -4.70621,12.29066 -9.80209,24.14369 -11.32419,26.34007 -5.08329,7.3352 -16.17159,16.6177 -25.19142,21.08884 l -8.52214,4.22443 -33.02368,0.28953 c -20.82814,0.18261 -33.48358,0.67121 -34.26901,1.32306 -0.68493,0.56844 -2.46374,4.26315 -3.95291,8.21047 -5.54665,14.70235 -9.71902,21.1877 -15.61177,24.26622 -3.0783,1.60817 -28.70444,1.92668 -32.48429,0.40374 z m 31.68463,-2.74457 c 4.52361,-2.2598 9.03651,-9.09498 13.08216,-19.81407 1.7779,-4.71061 4.0944,-9.66041 5.14777,-10.99956 l 1.91523,-2.43482 31.67742,-0.0326 c 27.67896,-0.0285 32.32519,-0.25653 36.80928,-1.80634 10.79155,-3.72981 22.95594,-12.7447 29.82617,-22.10384 2.26922,-3.0913 6.63599,-12.84101 12.05042,-26.90505 9.10604,-23.65305 10.29076,-29.77215 6.99726,-36.14108 -3.24955,-6.28398 -0.37689,-6.01109 -63.27788,-6.01109 -63.8081,0 -60.76404,-0.32142 -65.55771,6.92229 -1.47523,2.22923 -11.67952,27.52732 -22.67618,56.21798 -20.30067,52.96508 -21.85939,58.12537 -18.74394,62.05357 1.91589,2.4157 3.3093,2.64244 16.75,2.72566 10.01134,0.062 13.19682,-0.27071 16,-1.67105 z m -29.89991,-1.8909 c -2.05927,-1.44237 -2.27496,-2.20373 -1.77053,-6.25 0.58916,-4.72606 38.57419,-104.91599 41.16424,-108.57552 2.79211,-3.945 4.02897,-5.21747 6.19046,-6.36869 1.58648,-0.84496 17.64966,-1.16334 58.69423,-1.16334 h 56.50998 l 2.73104,2.34914 c 2.27016,1.95271 2.80345,3.35006 3.16006,8.28018 0.39796,5.50182 -0.16187,7.47875 -7.73605,27.31803 -4.49079,11.76286 -8.86085,22.73252 -9.71127,24.37703 -3.78652,7.32233 -17.53523,19.08363 -27.89891,23.86606 -4.76959,2.20097 -6.04527,2.28744 -38.43334,2.60496 -39.26175,0.38491 -35.86744,-0.7268 -41.45125,13.57606 -4.72761,12.10972 -7.39078,16.60547 -11.46186,19.34897 -3.05914,2.06155 -4.54272,2.27957 -15.51227,2.27957 -9.63096,0 -12.61265,-0.33834 -14.47453,-1.64245 z m 29.1309,-2.58933 c 2.62277,-1.71851 6.88129,-9.70732 12.2396,-22.961 4.33237,-10.71606 2.42167,-10.22475 42.02941,-10.80722 l 34,-0.5 5.66076,-2.86837 c 7.21517,-3.656 16.81842,-11.41469 21.14995,-17.08752 4.19003,-5.48751 20.68929,-47.79974 20.68929,-53.05751 0,-4.16389 -2.21466,-8.97126 -4.5448,-9.86542 -0.89033,-0.34165 -26.62665,-0.62118 -57.19182,-0.62118 h -55.57305 l -3.59778,3.78205 c -3.09066,3.24896 -6.38617,11.04767 -23.38022,55.32857 -10.88034,28.35059 -20.04942,53.1918 -20.37575,55.20269 -0.51668,3.18394 -0.28612,3.78597 1.78505,4.66118 1.30811,0.55276 7.34859,0.89684 13.4233,0.76464 8.4877,-0.18472 11.65643,-0.64105 13.68606,-1.97091 z m 31.51901,-61.45755 c -1.83384,-0.47923 -2.08036,-1.20591 -1.80161,-5.31067 0.24031,-3.53876 4.7783,-15.2985 7.41223,-19.20807 l 2.21782,-3.29193 26.07478,-0.26634 c 29.28725,-0.29915 29.05226,-0.35376 27.8917,6.48175 -0.35341,2.08153 -2.08309,6.70819 -3.84374,10.28148 -2.80802,5.69897 -3.85999,6.83501 -8.56537,9.25 l -5.36419,2.75311 -21.13581,-0.116 c -11.6247,-0.0638 -21.92331,-0.3218 -22.88581,-0.57333 z m 47.75,-3.49043 c 1.65,-0.89662 3.98219,-2.68547 5.18265,-3.97523 2.74873,-2.9532 6.26426,-11.07812 6.57823,-15.2033 l 0.23912,-3.14171 h -25.46818 -25.46819 l -2.27686,4 c -3.19141,5.60669 -6.72792,16.90799 -5.93645,18.97054 0.60496,1.57651 2.53534,1.69303 22.40584,1.35252 17.6977,-0.30328 22.30209,-0.67597 24.74384,-2.00282 z m -44.75977,-1.41334 c -0.91266,-0.91267 4.40204,-15.18249 6.48888,-17.42245 1.73812,-1.86565 3.1953,-1.98445 24.34123,-1.98445 19.14745,0 22.57869,0.2248 23.07248,1.51159 0.96266,2.50864 -3.63721,12.2763 -7.29274,15.4859 l -3.41967,3.00251 h -21.29854 c -11.71419,0 -21.56543,-0.2669 -21.89164,-0.5931 z m 45.30166,-3.9069 c 1.84016,-1.63797 6.95811,-11.235 6.95811,-13.04765 0,-0.26984 -10.00086,-0.3695 -22.22414,-0.22148 l -22.22415,0.26913 -2.73626,7 c -1.50494,3.85 -2.75407,7.36323 -2.77585,7.80719 -0.0218,0.44395 9.13928,0.66895 20.35791,0.5 18.73634,-0.28217 20.58049,-0.47007 22.64438,-2.30719 z"
       id="path3722"
       inkscape:connector-curvature="0" />
  </g>
</svg>
